<mxfile host="Electron" modified="2023-08-21T11:35:46.308Z" agent="Mozilla/5.0 (X11; Linux x86_64) AppleWebKit/537.36 (KHTML, like Gecko) draw.io/21.3.7 Chrome/112.0.5615.204 Electron/24.5.0 Safari/537.36" etag="STVPR7F4Gbm8oRwZk86h" version="21.3.7" type="device">
  <diagram name="Página-1" id="Jkc078h2hcOx-05Bufs_">
    <mxGraphModel dx="880" dy="570" grid="1" gridSize="10" guides="1" tooltips="1" connect="1" arrows="1" fold="1" page="1" pageScale="1" pageWidth="827" pageHeight="1169" math="0" shadow="0">
      <root>
        <mxCell id="0" />
        <mxCell id="1" parent="0" />
        <mxCell id="MRH6tuEuY3I-kxTHl0fX-1" value="Fundação Salomão" style="strokeWidth=1;shadow=0;dashed=0;align=center;html=1;shape=mxgraph.mockup.containers.window;align=left;verticalAlign=top;spacingLeft=8;strokeColor2=#008cff;strokeColor3=#c4c4c4;fontColor=#666666;mainText=;fontSize=17;labelBackgroundColor=none;whiteSpace=wrap;" parent="1" vertex="1">
          <mxGeometry x="70" y="40" width="730" height="470" as="geometry" />
        </mxCell>
        <mxCell id="MRH6tuEuY3I-kxTHl0fX-2" value="" style="strokeWidth=1;shadow=0;dashed=0;align=center;html=1;shape=mxgraph.mockup.forms.rrect;rSize=0;strokeColor=#999999;" parent="1" vertex="1">
          <mxGeometry x="170" y="90" width="600" height="30" as="geometry" />
        </mxCell>
        <mxCell id="MRH6tuEuY3I-kxTHl0fX-3" value="Alunos" style="strokeColor=inherit;fillColor=inherit;gradientColor=inherit;strokeWidth=1;shadow=0;dashed=0;align=center;html=1;shape=mxgraph.mockup.forms.rrect;rSize=0;fontSize=17;fontColor=#666666;whiteSpace=wrap;" parent="MRH6tuEuY3I-kxTHl0fX-2" vertex="1">
          <mxGeometry width="100" height="30" as="geometry" />
        </mxCell>
        <mxCell id="MRH6tuEuY3I-kxTHl0fX-4" value="Professores" style="strokeColor=inherit;fillColor=inherit;gradientColor=inherit;strokeWidth=1;shadow=0;dashed=0;align=center;html=1;shape=mxgraph.mockup.forms.rrect;rSize=0;fontSize=17;fontColor=#666666;whiteSpace=wrap;" parent="MRH6tuEuY3I-kxTHl0fX-2" vertex="1">
          <mxGeometry x="100" width="100" height="30" as="geometry" />
        </mxCell>
        <mxCell id="MRH6tuEuY3I-kxTHl0fX-5" value="Matérias" style="strokeColor=inherit;fillColor=inherit;gradientColor=inherit;strokeWidth=1;shadow=0;dashed=0;align=center;html=1;shape=mxgraph.mockup.forms.rrect;rSize=0;fontSize=17;fontColor=#666666;whiteSpace=wrap;" parent="MRH6tuEuY3I-kxTHl0fX-2" vertex="1">
          <mxGeometry x="200" width="100" height="30" as="geometry" />
        </mxCell>
        <mxCell id="MRH6tuEuY3I-kxTHl0fX-6" value="Notas" style="strokeColor=inherit;fillColor=inherit;gradientColor=inherit;strokeWidth=1;shadow=0;dashed=0;align=center;html=1;shape=mxgraph.mockup.forms.rrect;rSize=0;fontSize=17;fontColor=#666666;whiteSpace=wrap;" parent="MRH6tuEuY3I-kxTHl0fX-2" vertex="1">
          <mxGeometry x="300" width="100" height="30" as="geometry" />
        </mxCell>
        <mxCell id="MRH6tuEuY3I-kxTHl0fX-7" value="Avisos" style="strokeColor=inherit;fillColor=inherit;gradientColor=inherit;strokeWidth=1;shadow=0;dashed=0;align=center;html=1;shape=mxgraph.mockup.forms.rrect;rSize=0;fontSize=17;fontColor=#666666;whiteSpace=wrap;" parent="MRH6tuEuY3I-kxTHl0fX-2" vertex="1">
          <mxGeometry x="400" width="100" height="30" as="geometry" />
        </mxCell>
        <mxCell id="MRH6tuEuY3I-kxTHl0fX-8" value="Documentos" style="strokeColor=inherit;fillColor=inherit;gradientColor=inherit;strokeWidth=1;shadow=0;dashed=0;align=center;html=1;shape=mxgraph.mockup.forms.rrect;rSize=0;fontSize=17;fontColor=#666666;whiteSpace=wrap;" parent="MRH6tuEuY3I-kxTHl0fX-2" vertex="1">
          <mxGeometry x="500" width="100" height="30" as="geometry" />
        </mxCell>
        <mxCell id="MRH6tuEuY3I-kxTHl0fX-11" value="HOME" style="verticalLabelPosition=bottom;shadow=0;dashed=0;align=center;html=1;verticalAlign=top;strokeWidth=1;shape=mxgraph.mockup.misc.help_icon;" parent="1" vertex="1">
          <mxGeometry x="100" y="80" width="32" height="32" as="geometry" />
        </mxCell>
        <mxCell id="MRH6tuEuY3I-kxTHl0fX-12" value="Bem vindo a Fundação Itaú" style="text;html=1;strokeColor=none;fillColor=none;align=center;verticalAlign=middle;whiteSpace=wrap;rounded=0;" parent="1" vertex="1">
          <mxGeometry x="230" y="150" width="180" height="30" as="geometry" />
        </mxCell>
        <mxCell id="MRH6tuEuY3I-kxTHl0fX-13" value="" style="verticalLabelPosition=bottom;shadow=0;dashed=0;align=center;html=1;verticalAlign=top;strokeWidth=1;shape=mxgraph.mockup.containers.userMale;strokeColor=#666666;strokeColor2=#008cff;" parent="1" vertex="1">
          <mxGeometry x="90" y="160" width="120" height="100" as="geometry" />
        </mxCell>
        <mxCell id="MRH6tuEuY3I-kxTHl0fX-14" value="&lt;div align=&quot;left&quot;&gt;Nome&lt;/div&gt;&lt;div align=&quot;left&quot;&gt;Cidade/Estado&lt;/div&gt;&lt;div align=&quot;left&quot;&gt;Relação com a fundação&lt;br&gt;&lt;/div&gt;" style="text;html=1;strokeColor=none;fillColor=none;align=left;verticalAlign=middle;whiteSpace=wrap;rounded=0;" parent="1" vertex="1">
          <mxGeometry x="86" y="270" width="164" height="50" as="geometry" />
        </mxCell>
        <mxCell id="MRH6tuEuY3I-kxTHl0fX-16" value="&lt;h1&gt;Missão&lt;/h1&gt;&lt;p&gt;Lorem ipsum dolor sit amet, consectetur adipisicing elit, sed do eiusmod tempor incididunt ut labore et dolore magna aliqua.&lt;/p&gt;" style="text;html=1;strokeColor=none;fillColor=none;spacing=5;spacingTop=-20;whiteSpace=wrap;overflow=hidden;rounded=0;" parent="1" vertex="1">
          <mxGeometry x="240" y="180" width="530" height="120" as="geometry" />
        </mxCell>
        <mxCell id="MRH6tuEuY3I-kxTHl0fX-17" value="&lt;h1&gt;Visão&lt;/h1&gt;&lt;p&gt;Lorem ipsum dolor sit amet, consectetur adipisicing elit, sed do eiusmod tempor incididunt ut labore et dolore magna aliqua.&lt;/p&gt;" style="text;html=1;strokeColor=none;fillColor=none;spacing=5;spacingTop=-20;whiteSpace=wrap;overflow=hidden;rounded=0;" parent="1" vertex="1">
          <mxGeometry x="240" y="270" width="520" height="120" as="geometry" />
        </mxCell>
        <mxCell id="MRH6tuEuY3I-kxTHl0fX-19" value="&lt;h1&gt;Valores&lt;/h1&gt;&lt;p&gt;Lorem ipsum dolor sit amet, consectetur adipisicing elit, sed do eiusmod tempor incididunt ut labore et dolore magna aliqua.&lt;/p&gt;" style="text;html=1;strokeColor=none;fillColor=none;spacing=5;spacingTop=-20;whiteSpace=wrap;overflow=hidden;rounded=0;" parent="1" vertex="1">
          <mxGeometry x="240" y="360" width="510" height="120" as="geometry" />
        </mxCell>
        <mxCell id="MRH6tuEuY3I-kxTHl0fX-20" value="Endereço da instituição, telefone, email. Instagram, Facebook, Linkedin" style="text;html=1;strokeColor=none;fillColor=none;align=center;verticalAlign=middle;whiteSpace=wrap;rounded=0;" parent="1" vertex="1">
          <mxGeometry x="132" y="470" width="598" height="30" as="geometry" />
        </mxCell>
      </root>
    </mxGraphModel>
  </diagram>
</mxfile>
